<?xml version="1.0" standalone="no"?><!DOCTYPE svg PUBLIC "-//W3C//DTD SVG 1.1//EN" "http://www.w3.org/Graphics/SVG/1.1/DTD/svg11.dtd"><svg t="1554026186338" class="icon" style="" viewBox="0 0 1024 1024" version="1.1" xmlns="http://www.w3.org/2000/svg" p-id="1139" xmlns:xlink="http://www.w3.org/1999/xlink" width="400" height="400"><defs><style type="text/css"></style></defs><path d="M630.122514 656.516786s-5.458075-2.36245-5.458075-7.168815V594.68576l-211.805887 10.50883s2.36245 64.437868-2.525378 69.977407c0 0-25.253779 18.492283-17.922036 33.807478 15.396659 32.34113 58.979793 51.485123 92.054097 56.78027 40.731901 6.517104 102.888783 0 138.488464-22.891328 23.461575-14.826412 38.450915-72.584248 7.168815-86.351631z" fill="#FCE7D4" p-id="1140"></path><path d="M662.708035 457.256325s-4.399045 74.865235-5.946858 80.975019a103.540493 103.540493 0 0 1-11.975179 29.001114 558.434368 558.434368 0 0 1-44.805091 61.26078c-8.14638 8.14638-25.335243 33.563087-34.947971 36.332856a228.994749 228.994749 0 0 1-47.656325 7.657597c-10.182975-0.570247-46.92315-5.458075-54.988067-10.345903s-35.925537-37.799204-58.979793-68.185202-34.785044-55.150994-36.41432-62.808592a348.420684 348.420684 0 0 1-2.118059-35.273827L361.291965 496.929196s-0.488783 7.739061-7.250278 8.635164c-9.694193 1.221957-15.559586-10.997613-18.084965-18.492284-4.154654-12.463962-2.36245-26.231344-6.842959-38.695306s-24.927924-56.047096-8.635163-67.126173c14.256165-9.694193 26.964519 3.991726 31.607955 17.025934a127.653779 127.653779 0 0 1 3.584408 13.2786l2.769769-0.733174s-0.407319-24.439141 0-41.220684c0.733174-31.607955-8.961018-66.963246 2.851233-97.756563C399.987271 171.073986 436.80891 167.326651 527.315195 164.393954c80.730628-2.688305 126.024503 62.890056 132.134288 92.868735a297.668735 297.668735 0 0 1 7.168815 73.317422c-1.221957 22.239618-4.236118 77.635004-4.236118 77.635004l2.606841 0.488783a231.764519 231.764519 0 0 1 10.753222-27.045982 14.011774 14.011774 0 0 1 25.90549 10.50883c-2.36245 8.716627-6.680032 33.726014-8.146381 43.827526a134.089419 134.089419 0 0 0 0 22.158154c0 6.761496-2.851233 30.141607-12.789817 29.897216-6.43564-0.488783-21.506444-0.081464-18.0035-30.793317z" fill="#FCE7D4" p-id="1141"></path><path d="M25.986953 1024s2.36245-9.20541 8.14638-36.903103 42.524105-122.195704 61.993954-146.064598 48.878282-36.903103 69.162769-46.760223 220.848369-114.863962 220.848369-114.863961a240.807001 240.807001 0 0 0 130.830867 40.731901c75.598409 0 138.488465-45.456802 138.488465-45.456802 0-5.78393 159.424662 95.638504 206.347812 116.900557A223.292283 223.292283 0 0 1 964.124105 887.955449c19.306921 36.903103 40.731901 133.845028 40.731901 133.845028" fill="#202133" p-id="1142"></path><path d="M386.138425 679.408115a53.195863 53.195863 0 0 0 5.458075-16.292761 57.676372 57.676372 0 0 1 5.702466-20.365951c3.177088-3.502944 13.360064-4.07319 13.360063-4.07319s-8.14638 12.138107-3.747334 16.292761a198.527287 198.527287 0 0 0 31.770883 24.439141c12.871281 7.576134 68.34813 36.251392 74.376451 39.021161s-0.733174 4.154654-4.236117 4.399045-28.349403 2.932697-36.658712 11.975179-59.387112 66.555927-59.387112 66.555927-30.956245-117.715195-26.638663-121.951312z" fill="#202133" p-id="1143"></path><path d="M627.922991 636.150835s6.109785-2.769769 8.146381 2.606842 3.177088 16.292761 3.665871 18.899602A180.849642 180.849642 0 0 0 662.708035 677.615911l-24.439141 117.226412s-53.847574-39.428481-74.294988-50.263166-48.226571-22.809865-47.004614-24.439141 105.902944-55.558313 110.953699-78.368178a6.598568 6.598568 0 0 0 0-3.095625z" fill="#202133" p-id="1144"></path><path d="M488.131106 724.94638v297.179953M555.175815 737.410342v284.715991" fill="#FFFFFF" p-id="1145"></path><path d="M521.612729 840.62498m-15.966906 0a15.966905 15.966905 0 1 0 31.933811 0 15.966905 15.966905 0 1 0-31.933811 0Z" fill="#FFFFFF" p-id="1146"></path><path d="M521.612729 970.722673m-15.966906 0a15.966905 15.966905 0 1 0 31.933811 0 15.966905 15.966905 0 1 0-31.933811 0Z" fill="#FFFFFF" p-id="1147"></path><path d="M470.453461 378.480827c0 11.160541-4.561973 20.203023-10.26444 20.203023s-10.264439-9.042482-10.264439-20.203023 0-20.121559 10.264439-20.121559c7.005887 0.081464 10.264439 9.042482 10.26444 20.121559z" fill="#FFFFFF" p-id="1148"></path><path d="M602.669212 374.733492c0 11.975179-4.561973 21.669372-10.264439 21.669372s-10.264439-9.531265-10.264439-21.669372 0-21.750835 10.264439-21.750835c7.005887 0.162928 10.264439 9.85712 10.264439 21.750835z" fill="#FFFFFF" p-id="1149"></path><path d="M662.708035 205.288783h-3.991726c2.606842 1.955131 4.317582-3.177088 3.340016-6.191249-13.197136-40.243119-48.878282-70.629117-88.958473-84.315036-42.768496-14.663484-104.518059-18.655211-143.620684 6.924423a202.43755 202.43755 0 0 0-79.590135 100.526333c-4.887828 13.522991-8.14638 27.534765-14.256166 40.731901a63.052983 63.052983 0 0 1-27.86062 31.607956 34.459189 34.459189 0 0 1-39.672872-5.702467A48.878282 48.878282 0 0 0 328.706444 351.7607l1.140493 25.335243a48.878282 48.878282 0 0 1 26.068417 26.557199c9.042482-15.803978 6.191249-36.088465 14.093238-52.544152 6.680032-13.93031 20.936197-24.439141 21.995227-40.080191C393.877486 288.381862 365.528083 268.830549 418.316627 239.666508a9.042482 9.042482 0 0 1 3.828799-1.140494c17.840573-0.814638 33.563087 10.671758 49.367064 19.143994a139.46603 139.46603 0 0 0 87.573588 15.64105 115.434208 115.434208 0 0 0 75.435481-45.782657 133.274781 133.274781 0 0 0-5.458075 58.979793c3.258552 19.71424 12.871281 37.717741 20.691806 56.12856a126.757677 126.757677 0 0 1 13.848847 50.018775 2.36245 2.36245 0 0 0 4.480509 1.303421c2.443914-4.154654 4.236118-8.635163 6.43564-13.115672a114.049324 114.049324 0 0 0 7.331743-18.247892 164.9642 164.9642 0 0 0-5.702467-109.405887 12.952745 12.952745 0 0 1-1.547812-6.435641c0.570247-5.539539 8.14638-7.739061 13.115672-5.213683a25.824025 25.824025 0 0 1 10.020048 12.789817 36.577247 36.577247 0 0 0-35.192363-48.878282z" fill="#7F500B" p-id="1150"></path><path d="M447.480668 525.93031a37.228958 37.228958 0 0 1 19.225458 14.500557 69.244232 69.244232 0 0 0 35.844073 23.950358c19.958632 5.13222 29.326969 6.842959 27.290374 17.107399s-17.514718 13.93031-27.290374 18.084964a65.171042 65.171042 0 0 1-47.656325-7.739061 40.080191 40.080191 0 0 1-18.247892-28.186476c-3.665871-14.663484-0.896102-43.746062 10.834686-37.717741z" fill="#FFFFFF" p-id="1151"></path></svg>